<mxfile host="Electron" modified="2025-07-02T12:49:41.792Z" agent="Mozilla/5.0 (Windows NT 10.0; Win64; x64) AppleWebKit/537.36 (KHTML, like Gecko) draw.io/24.6.1 Chrome/124.0.6367.207 Electron/30.0.6 Safari/537.36" etag="SHBvlF3xiKaayH7Qd_ve" version="24.6.1" type="device">
  <diagram name="Seite-1" id="LdgVMjovZCc1epD7LijY">
    <mxGraphModel dx="794" dy="557" grid="1" gridSize="10" guides="1" tooltips="1" connect="1" arrows="1" fold="1" page="1" pageScale="1" pageWidth="827" pageHeight="1169" math="0" shadow="0">
      <root>
        <mxCell id="0" />
        <mxCell id="1" parent="0" />
        <mxCell id="UxkYVM2IpneKI5oskExh-10" style="edgeStyle=orthogonalEdgeStyle;rounded=0;orthogonalLoop=1;jettySize=auto;html=1;entryX=0.5;entryY=0;entryDx=0;entryDy=0;" edge="1" parent="1" source="UxkYVM2IpneKI5oskExh-1" target="UxkYVM2IpneKI5oskExh-2">
          <mxGeometry relative="1" as="geometry" />
        </mxCell>
        <mxCell id="UxkYVM2IpneKI5oskExh-11" style="edgeStyle=orthogonalEdgeStyle;rounded=0;orthogonalLoop=1;jettySize=auto;html=1;entryX=0.5;entryY=0;entryDx=0;entryDy=0;" edge="1" parent="1" source="UxkYVM2IpneKI5oskExh-1" target="UxkYVM2IpneKI5oskExh-3">
          <mxGeometry relative="1" as="geometry" />
        </mxCell>
        <mxCell id="UxkYVM2IpneKI5oskExh-1" value="Images" style="rounded=1;whiteSpace=wrap;html=1;" vertex="1" parent="1">
          <mxGeometry x="320" y="180" width="120" height="60" as="geometry" />
        </mxCell>
        <mxCell id="UxkYVM2IpneKI5oskExh-2" value="API" style="rounded=1;whiteSpace=wrap;html=1;" vertex="1" parent="1">
          <mxGeometry x="250" y="340" width="120" height="60" as="geometry" />
        </mxCell>
        <mxCell id="UxkYVM2IpneKI5oskExh-14" style="edgeStyle=orthogonalEdgeStyle;rounded=0;orthogonalLoop=1;jettySize=auto;html=1;" edge="1" parent="1" source="UxkYVM2IpneKI5oskExh-3" target="UxkYVM2IpneKI5oskExh-13">
          <mxGeometry relative="1" as="geometry" />
        </mxCell>
        <mxCell id="UxkYVM2IpneKI5oskExh-3" value="LOCAL" style="rounded=1;whiteSpace=wrap;html=1;" vertex="1" parent="1">
          <mxGeometry x="440" y="340" width="120" height="60" as="geometry" />
        </mxCell>
        <mxCell id="UxkYVM2IpneKI5oskExh-12" value="" style="edgeStyle=orthogonalEdgeStyle;rounded=0;orthogonalLoop=1;jettySize=auto;html=1;" edge="1" parent="1" source="UxkYVM2IpneKI5oskExh-4" target="UxkYVM2IpneKI5oskExh-6">
          <mxGeometry relative="1" as="geometry" />
        </mxCell>
        <mxCell id="UxkYVM2IpneKI5oskExh-4" value="Presentation" style="rounded=1;whiteSpace=wrap;html=1;" vertex="1" parent="1">
          <mxGeometry x="610" y="340" width="120" height="60" as="geometry" />
        </mxCell>
        <mxCell id="UxkYVM2IpneKI5oskExh-16" value="" style="edgeStyle=orthogonalEdgeStyle;rounded=0;orthogonalLoop=1;jettySize=auto;html=1;" edge="1" parent="1" source="UxkYVM2IpneKI5oskExh-6" target="UxkYVM2IpneKI5oskExh-15">
          <mxGeometry relative="1" as="geometry" />
        </mxCell>
        <mxCell id="UxkYVM2IpneKI5oskExh-6" value="Model details" style="rounded=1;whiteSpace=wrap;html=1;" vertex="1" parent="1">
          <mxGeometry x="610" y="430" width="120" height="60" as="geometry" />
        </mxCell>
        <mxCell id="UxkYVM2IpneKI5oskExh-9" style="edgeStyle=orthogonalEdgeStyle;rounded=0;orthogonalLoop=1;jettySize=auto;html=1;entryX=0.5;entryY=0;entryDx=0;entryDy=0;" edge="1" parent="1" source="UxkYVM2IpneKI5oskExh-7" target="UxkYVM2IpneKI5oskExh-2">
          <mxGeometry relative="1" as="geometry" />
        </mxCell>
        <mxCell id="UxkYVM2IpneKI5oskExh-7" value="video" style="rounded=1;whiteSpace=wrap;html=1;" vertex="1" parent="1">
          <mxGeometry x="160" y="180" width="120" height="60" as="geometry" />
        </mxCell>
        <mxCell id="UxkYVM2IpneKI5oskExh-13" value="Future&lt;div&gt;&lt;ul&gt;&lt;li&gt;Quatization&lt;/li&gt;&lt;li&gt;Pruning&lt;/li&gt;&lt;li&gt;Fine-tuning&lt;/li&gt;&lt;/ul&gt;&lt;/div&gt;" style="rounded=1;whiteSpace=wrap;html=1;" vertex="1" parent="1">
          <mxGeometry x="422.5" y="460" width="155" height="90" as="geometry" />
        </mxCell>
        <mxCell id="UxkYVM2IpneKI5oskExh-15" value="" style="rounded=1;whiteSpace=wrap;html=1;" vertex="1" parent="1">
          <mxGeometry x="610" y="570" width="120" height="60" as="geometry" />
        </mxCell>
      </root>
    </mxGraphModel>
  </diagram>
</mxfile>
